<mxfile host="app.diagrams.net" modified="2023-03-09T02:46:37.074Z" agent="5.0 (Windows NT 10.0; Win64; x64) AppleWebKit/537.36 (KHTML, like Gecko) Chrome/110.0.0.0 Safari/537.36 Edg/110.0.1587.63" etag="JKn2vaTuP3RdWn5OpYTd" version="21.0.4" type="github">
  <diagram id="prtHgNgQTEPvFCAcTncT" name="Page-1">
    <mxGraphModel dx="837" dy="458" grid="0" gridSize="10" guides="1" tooltips="1" connect="1" arrows="1" fold="1" page="1" pageScale="1" pageWidth="827" pageHeight="1169" math="0" shadow="0">
      <root>
        <mxCell id="0" />
        <mxCell id="1" parent="0" />
        <mxCell id="94fsVNv-SU2JZXW_Png_-1" value="&lt;font style=&quot;font-size: 16px;&quot;&gt;I&lt;/font&gt;&lt;sub&gt;1&lt;/sub&gt;" style="rounded=0;whiteSpace=wrap;html=1;" vertex="1" parent="1">
          <mxGeometry x="240" y="20" width="90" height="60" as="geometry" />
        </mxCell>
        <mxCell id="94fsVNv-SU2JZXW_Png_-2" value="&lt;font style=&quot;font-size: 16px;&quot;&gt;I&lt;/font&gt;&lt;span style=&quot;font-size: 10px;&quot;&gt;&lt;sub&gt;2&lt;/sub&gt;&lt;/span&gt;" style="rounded=0;whiteSpace=wrap;html=1;" vertex="1" parent="1">
          <mxGeometry x="240" y="100" width="90" height="60" as="geometry" />
        </mxCell>
        <mxCell id="94fsVNv-SU2JZXW_Png_-3" value="&lt;font style=&quot;font-size: 16px;&quot;&gt;I&lt;/font&gt;&lt;span style=&quot;font-size: 10px;&quot;&gt;&lt;sub&gt;3&lt;/sub&gt;&lt;/span&gt;" style="rounded=0;whiteSpace=wrap;html=1;" vertex="1" parent="1">
          <mxGeometry x="240" y="180" width="90" height="60" as="geometry" />
        </mxCell>
        <mxCell id="94fsVNv-SU2JZXW_Png_-4" value="&lt;font style=&quot;font-size: 16px;&quot;&gt;I&lt;/font&gt;&lt;span style=&quot;font-size: 10px;&quot;&gt;&lt;sub&gt;4&lt;/sub&gt;&lt;/span&gt;" style="rounded=0;whiteSpace=wrap;html=1;" vertex="1" parent="1">
          <mxGeometry x="240" y="260" width="90" height="60" as="geometry" />
        </mxCell>
        <mxCell id="94fsVNv-SU2JZXW_Png_-7" value="" style="endArrow=none;dashed=1;html=1;rounded=0;" edge="1" parent="1">
          <mxGeometry width="50" height="50" relative="1" as="geometry">
            <mxPoint x="240" y="90" as="sourcePoint" />
            <mxPoint x="420" y="90" as="targetPoint" />
            <Array as="points">
              <mxPoint x="290" y="90" />
            </Array>
          </mxGeometry>
        </mxCell>
        <mxCell id="94fsVNv-SU2JZXW_Png_-8" value="" style="endArrow=none;dashed=1;html=1;rounded=0;" edge="1" parent="1">
          <mxGeometry width="50" height="50" relative="1" as="geometry">
            <mxPoint x="240" y="170" as="sourcePoint" />
            <mxPoint x="480" y="170" as="targetPoint" />
            <Array as="points">
              <mxPoint x="290" y="170" />
            </Array>
          </mxGeometry>
        </mxCell>
        <mxCell id="94fsVNv-SU2JZXW_Png_-9" value="" style="endArrow=none;dashed=1;html=1;rounded=0;" edge="1" parent="1">
          <mxGeometry width="50" height="50" relative="1" as="geometry">
            <mxPoint x="240" y="250" as="sourcePoint" />
            <mxPoint x="560" y="250" as="targetPoint" />
            <Array as="points">
              <mxPoint x="290" y="250" />
            </Array>
          </mxGeometry>
        </mxCell>
        <mxCell id="94fsVNv-SU2JZXW_Png_-10" value="" style="endArrow=none;dashed=1;html=1;rounded=0;" edge="1" parent="1">
          <mxGeometry width="50" height="50" relative="1" as="geometry">
            <mxPoint x="240" y="330" as="sourcePoint" />
            <mxPoint x="610" y="330" as="targetPoint" />
            <Array as="points">
              <mxPoint x="290" y="330" />
            </Array>
          </mxGeometry>
        </mxCell>
        <mxCell id="94fsVNv-SU2JZXW_Png_-12" value="&lt;ul&gt;&lt;li style=&quot;&quot;&gt;协同规则&lt;/li&gt;&lt;li style=&quot;&quot;&gt;交互&lt;/li&gt;&lt;li style=&quot;&quot;&gt;全部协同规则&lt;/li&gt;&lt;li style=&quot;&quot;&gt;接受/执行&lt;/li&gt;&lt;/ul&gt;" style="text;html=1;align=left;verticalAlign=middle;resizable=0;points=[];autosize=1;strokeColor=none;fillColor=none;" vertex="1" parent="1">
          <mxGeometry x="310" width="140" height="100" as="geometry" />
        </mxCell>
        <mxCell id="94fsVNv-SU2JZXW_Png_-13" value="&lt;div style=&quot;text-align: left;&quot;&gt;&lt;ul&gt;&lt;li&gt;&lt;span style=&quot;background-color: initial;&quot;&gt;本地规则&lt;/span&gt;&lt;/li&gt;&lt;li&gt;&lt;span style=&quot;background-color: initial;&quot;&gt;交互&lt;/span&gt;&lt;/li&gt;&lt;li&gt;&lt;span style=&quot;background-color: initial;&quot;&gt;部分协同规则&lt;/span&gt;&lt;/li&gt;&lt;li&gt;&lt;span style=&quot;background-color: initial;&quot;&gt;接受/执行&lt;/span&gt;&lt;/li&gt;&lt;/ul&gt;&lt;/div&gt;" style="text;html=1;align=center;verticalAlign=middle;resizable=0;points=[];autosize=1;strokeColor=none;fillColor=none;" vertex="1" parent="1">
          <mxGeometry x="300" y="80" width="140" height="100" as="geometry" />
        </mxCell>
        <mxCell id="94fsVNv-SU2JZXW_Png_-14" value="&lt;ul&gt;&lt;li&gt;本地规则&lt;/li&gt;&lt;li&gt;接受/执行&lt;/li&gt;&lt;/ul&gt;" style="text;html=1;align=left;verticalAlign=middle;resizable=0;points=[];autosize=1;strokeColor=none;fillColor=none;" vertex="1" parent="1">
          <mxGeometry x="315" y="175" width="110" height="70" as="geometry" />
        </mxCell>
        <mxCell id="94fsVNv-SU2JZXW_Png_-15" value="&lt;ul&gt;&lt;li&gt;接受/执行&lt;/li&gt;&lt;/ul&gt;" style="text;html=1;align=left;verticalAlign=middle;resizable=0;points=[];autosize=1;strokeColor=none;fillColor=none;" vertex="1" parent="1">
          <mxGeometry x="315" y="265" width="110" height="50" as="geometry" />
        </mxCell>
        <mxCell id="94fsVNv-SU2JZXW_Png_-17" value="" style="edgeStyle=segmentEdgeStyle;endArrow=classic;html=1;curved=0;rounded=0;endSize=8;startSize=8;" edge="1" parent="1">
          <mxGeometry width="50" height="50" relative="1" as="geometry">
            <mxPoint x="640" y="330" as="sourcePoint" />
            <mxPoint x="640" y="20" as="targetPoint" />
          </mxGeometry>
        </mxCell>
        <mxCell id="94fsVNv-SU2JZXW_Png_-18" value="&lt;font style=&quot;font-size: 14px;&quot;&gt;智能水平&lt;/font&gt;" style="text;html=1;align=center;verticalAlign=middle;resizable=0;points=[];autosize=1;strokeColor=none;fillColor=none;rotation=-90;" vertex="1" parent="1">
          <mxGeometry x="580" y="145" width="80" height="30" as="geometry" />
        </mxCell>
        <mxCell id="94fsVNv-SU2JZXW_Png_-28" value="&lt;font style=&quot;border-color: var(--border-color); font-size: 16px;&quot;&gt;I&lt;/font&gt;&lt;sub style=&quot;border-color: var(--border-color);&quot;&gt;1&lt;/sub&gt;" style="rounded=0;whiteSpace=wrap;html=1;" vertex="1" parent="1">
          <mxGeometry x="100" y="620" width="100" height="60" as="geometry" />
        </mxCell>
        <mxCell id="94fsVNv-SU2JZXW_Png_-29" value="&lt;font style=&quot;border-color: var(--border-color); font-size: 16px;&quot;&gt;I&lt;/font&gt;&lt;sub style=&quot;border-color: var(--border-color);&quot;&gt;2&lt;/sub&gt;" style="rounded=0;whiteSpace=wrap;html=1;" vertex="1" parent="1">
          <mxGeometry x="220" y="620" width="100" height="60" as="geometry" />
        </mxCell>
        <mxCell id="94fsVNv-SU2JZXW_Png_-30" value="&lt;font style=&quot;border-color: var(--border-color); font-size: 16px;&quot;&gt;I&lt;/font&gt;&lt;sub style=&quot;border-color: var(--border-color);&quot;&gt;3&lt;/sub&gt;" style="rounded=0;whiteSpace=wrap;html=1;" vertex="1" parent="1">
          <mxGeometry x="340" y="620" width="100" height="60" as="geometry" />
        </mxCell>
        <mxCell id="94fsVNv-SU2JZXW_Png_-31" value="" style="endArrow=none;html=1;rounded=0;" edge="1" parent="1">
          <mxGeometry width="50" height="50" relative="1" as="geometry">
            <mxPoint x="90" y="600" as="sourcePoint" />
            <mxPoint x="450" y="600" as="targetPoint" />
          </mxGeometry>
        </mxCell>
        <mxCell id="94fsVNv-SU2JZXW_Png_-33" value="" style="endArrow=none;dashed=1;html=1;strokeWidth=1;rounded=0;dashPattern=12 12;" edge="1" parent="1">
          <mxGeometry width="50" height="50" relative="1" as="geometry">
            <mxPoint x="210" y="850" as="sourcePoint" />
            <mxPoint x="210" y="620" as="targetPoint" />
          </mxGeometry>
        </mxCell>
        <mxCell id="94fsVNv-SU2JZXW_Png_-34" value="" style="endArrow=none;dashed=1;html=1;strokeWidth=1;rounded=0;dashPattern=12 12;" edge="1" parent="1">
          <mxGeometry width="50" height="50" relative="1" as="geometry">
            <mxPoint x="329" y="850" as="sourcePoint" />
            <mxPoint x="329.17" y="620" as="targetPoint" />
          </mxGeometry>
        </mxCell>
        <mxCell id="94fsVNv-SU2JZXW_Png_-35" value="&lt;p style=&quot;border-color: var(--border-color); orphans: 2; text-indent: 0px; widows: 2; background-color: rgb(251, 251, 251); text-decoration-thickness: initial; text-decoration-style: initial; text-decoration-color: initial;&quot;&gt;&lt;/p&gt;&lt;div style=&quot;line-height: 160%;&quot;&gt;&lt;span style=&quot;background-color: initial;&quot;&gt;1.几乎没有如何智能能力。&lt;/span&gt;&lt;br&gt;&lt;/div&gt;&lt;span style=&quot;color: rgb(0, 0, 0); font-size: 12px; font-style: normal; font-variant-ligatures: normal; font-variant-caps: normal; font-weight: 400; letter-spacing: normal; text-transform: none; word-spacing: 0px; -webkit-text-stroke-width: 0px; border-color: var(--border-color); background-color: initial;&quot;&gt;&lt;div style=&quot;line-height: 160%;&quot;&gt;&lt;span style=&quot;background-color: initial;&quot;&gt;2.智能接受命令进行执行。&lt;/span&gt;&lt;/div&gt;&lt;/span&gt;&lt;span style=&quot;color: rgb(0, 0, 0); font-size: 12px; font-style: normal; font-variant-ligatures: normal; font-variant-caps: normal; font-weight: 400; letter-spacing: normal; text-transform: none; word-spacing: 0px; -webkit-text-stroke-width: 0px; border-color: var(--border-color); background-color: initial;&quot;&gt;&lt;div style=&quot;line-height: 160%;&quot;&gt;&lt;span style=&quot;background-color: initial;&quot;&gt;3.卫星仅为“执行器”。&lt;/span&gt;&lt;/div&gt;&lt;/span&gt;&lt;p&gt;&lt;/p&gt;&lt;div style=&quot;&quot;&gt;&lt;br&gt;&lt;/div&gt;" style="rounded=0;whiteSpace=wrap;html=1;align=left;" vertex="1" parent="1">
          <mxGeometry x="100" y="700" width="100" height="140" as="geometry" />
        </mxCell>
        <mxCell id="94fsVNv-SU2JZXW_Png_-36" value="&lt;div style=&quot;text-align: left; border-color: var(--border-color); line-height: 19.2px;&quot;&gt;1.具有局部决策能力。&lt;br style=&quot;border-color: var(--border-color);&quot;&gt;&lt;/div&gt;&lt;span style=&quot;border-color: var(--border-color); background-color: initial;&quot;&gt;&lt;div style=&quot;text-align: left; border-color: var(--border-color); line-height: 19.2px;&quot;&gt;&lt;span style=&quot;border-color: var(--border-color); background-color: initial;&quot;&gt;2.可以自我感知新的任务。&lt;/span&gt;&lt;/div&gt;&lt;/span&gt;&lt;span style=&quot;border-color: var(--border-color); background-color: initial;&quot;&gt;&lt;div style=&quot;text-align: left; border-color: var(--border-color); line-height: 19.2px;&quot;&gt;&lt;span style=&quot;border-color: var(--border-color); background-color: initial;&quot;&gt;3.可以与其他卫星进行信息交互。&lt;/span&gt;&lt;/div&gt;&lt;/span&gt;&lt;p style=&quot;border-color: var(--border-color);&quot;&gt;&lt;/p&gt;&lt;div style=&quot;border-color: var(--border-color);&quot;&gt;&lt;br style=&quot;border-color: var(--border-color); text-align: left;&quot;&gt;&lt;/div&gt;" style="rounded=0;whiteSpace=wrap;html=1;" vertex="1" parent="1">
          <mxGeometry x="220" y="700" width="100" height="140" as="geometry" />
        </mxCell>
        <mxCell id="94fsVNv-SU2JZXW_Png_-37" value="&lt;div style=&quot;text-align: left; border-color: var(--border-color); line-height: 19.2px;&quot;&gt;1.具有全局感官。&lt;br style=&quot;border-color: var(--border-color);&quot;&gt;&lt;/div&gt;&lt;span style=&quot;border-color: var(--border-color); background-color: initial;&quot;&gt;&lt;div style=&quot;text-align: left; border-color: var(--border-color); line-height: 19.2px;&quot;&gt;&lt;span style=&quot;border-color: var(--border-color); background-color: initial;&quot;&gt;2.强大的星上运算能力。&lt;/span&gt;&lt;/div&gt;&lt;/span&gt;&lt;span style=&quot;border-color: var(--border-color); background-color: initial;&quot;&gt;&lt;div style=&quot;text-align: left; border-color: var(--border-color); line-height: 19.2px;&quot;&gt;&lt;span style=&quot;border-color: var(--border-color); background-color: initial;&quot;&gt;3.可执行部分地面系统功能。&lt;/span&gt;&lt;/div&gt;&lt;/span&gt;&lt;p style=&quot;border-color: var(--border-color);&quot;&gt;&lt;/p&gt;&lt;div style=&quot;border-color: var(--border-color);&quot;&gt;&lt;br style=&quot;border-color: var(--border-color); text-align: left;&quot;&gt;&lt;/div&gt;" style="rounded=0;whiteSpace=wrap;html=1;" vertex="1" parent="1">
          <mxGeometry x="340" y="700" width="100" height="140" as="geometry" />
        </mxCell>
      </root>
    </mxGraphModel>
  </diagram>
</mxfile>
